<?xml version="1.0" encoding="utf-8" ?><svg xmlns="http://www.w3.org/2000/svg" xmlns:xlink="http://www.w3.org/1999/xlink" width="3896" height="3896" viewBox="0 0 3896 3896"><path fill="white" transform="translate(0 -0.000488281)" d="M2049.73 1662.39L2483.15 1662.73L2485.22 2252.65C2418.23 2251.8 2349.68 2252.61 2282.57 2252.67L2282.51 2015.06L2282.28 1862.11C2216.2 1861.77 2150.11 1861.91 2084.03 1862.55L2083.95 2253.16C2017.08 2253.56 1950.21 2253.59 1883.34 2253.26L1883.66 1861.84C1816.71 1861.6 1749.75 1861.78 1682.8 1862.36L1682.48 2252.46C1616.45 2253.39 1549 2252.87 1482.84 2253.07C1481.56 2124.73 1486.39 1990.03 1482.98 1862.36L1212.14 1862.54C1212.46 1800.03 1209.62 1723.69 1212.58 1662.67L1481.11 1662.4C1484.12 1709.77 1481.54 1787.6 1481.73 1837.95C1538.37 1781.21 1593.41 1720.38 1649.1 1662.39L1882.38 1662.62C1884.86 1713.8 1882.58 1785.53 1882.65 1838.36C1902.92 1820.52 1935.32 1784.77 1954.96 1763.75C1985.14 1731.44 2021.4 1695.59 2049.73 1662.39Z"/><path fill="white" transform="translate(0 -0.000488281)" d="M2144.01 2364.7L2222.75 2364.7C2233.5 2449.34 2246.38 2535.48 2258.17 2620.09C2267.53 2537.08 2282.27 2448.34 2293.41 2364.7L2372.15 2364.7L2372.15 2714.72L2320.21 2714.72L2320.21 2485.41L2320.17 2450.31C2315.8 2464.35 2308.66 2518.55 2306.12 2535.41L2278.95 2714.72L2233 2714.72L2207.34 2544.07C2203.4 2517.85 2198.17 2474.73 2192.09 2449.83C2189.93 2534.8 2191.89 2629.03 2191.89 2714.72L2144.01 2714.72L2144.01 2364.7Z"/><path fill="white" transform="translate(0 -0.000488281)" d="M1013.46 2364.7L1066.78 2364.7C1071.71 2451.07 1083.69 2550.71 1091.26 2638.52C1095.53 2608.87 1098.11 2571.67 1101.03 2541.45L1118.19 2364.7L1178.09 2364.7C1187.65 2455.37 1194.7 2546.74 1204.74 2637.38L1229.37 2364.7L1277 2364.7L1273.15 2404.11L1241.72 2714.72L1172.89 2714.72C1165.37 2634.62 1155.15 2554.37 1147.92 2474.14C1137.41 2545.82 1129.79 2641.18 1121.97 2714.72L1048.8 2714.72C1038.52 2598.77 1025.27 2480.67 1013.46 2364.7Z"/><path fill="white" transform="translate(0 -0.000488281)" d="M2594.59 2364.7C2633.99 2364.43 2700.25 2357.45 2732.9 2380.41C2759.91 2399.41 2761.18 2440.52 2760.53 2470.82C2759.22 2531.89 2763.66 2595.2 2757.91 2656.04C2756.67 2669.31 2747.43 2683.64 2739.23 2693.86C2707.24 2723.38 2639.43 2715 2594.59 2714.71L2594.59 2364.7ZM2649.65 2664.9C2669.24 2665.18 2682.28 2667.85 2698.33 2657.39C2713.78 2629.5 2702.05 2491.52 2705.3 2452.04C2708.61 2411.67 2679.23 2414.13 2649.65 2414.62L2649.65 2664.9Z"/><path fill="white" transform="translate(0 -0.000488281)" d="M1668.84 2364.7L1737.88 2364.7L1792.28 2576.66L1792.34 2364.7L1841.49 2364.7L1841.49 2714.71L1791.53 2714.71L1785.69 2714C1782.41 2707.88 1768.48 2651.03 1765.94 2641.17L1718.05 2455.8C1716.8 2540.99 1717.94 2629.29 1717.92 2714.71L1668.84 2714.71L1668.84 2364.7Z"/><path fill="white" transform="translate(0 -0.000488281)" d="M2936.21 2364.7L3010.68 2364.7C3015.22 2401.42 3023.83 2446.4 3029.86 2483.45L3067.53 2714.72L3012.33 2714.72C3009.65 2693.74 3006.66 2672.8 3003.36 2651.91L3003.04 2648.74C2996.05 2643.99 2951.24 2646.09 2939.86 2646.21C2937.23 2668.51 2933.4 2692.36 2930.22 2714.72L2879.2 2714.72C2884.18 2676.94 2892.11 2634.59 2898.33 2596.37L2936.21 2364.7ZM2946.2 2598.7L2974.31 2598.7L2995.94 2598.65C2992.62 2574.58 2976.78 2440.3 2970.41 2426.75C2963.36 2477.62 2955.69 2549.98 2946.2 2598.7Z"/><path fill="white" transform="translate(0 -0.000488281)" d="M2412.91 2364.7L2562.84 2364.7L2562.84 2414.62L2467.84 2414.62L2467.84 2507.27L2543.48 2507.27L2543.48 2557.09L2467.84 2557.09L2467.84 2639.5L2467.84 2664.9L2562.84 2664.9L2562.84 2714.71L2412.91 2714.71L2412.91 2364.7Z"/><path fill="white" transform="translate(0 -0.000488281)" d="M1882.6 2364.7L2032.39 2364.7L2032.39 2414.62L1937.47 2414.62L1937.47 2507.27L2012.87 2507.27L2012.87 2557.09L1937.47 2557.09L1937.47 2637.6L1937.47 2664.9L2032.39 2664.9L2032.39 2714.71L1882.6 2714.71L1882.6 2364.7Z"/><path fill="white" transform="translate(0 -0.000488281)" d="M827.838 2364.7L998.137 2364.7L998.137 2414.62L940.371 2414.62L940.371 2654.72L940.371 2714.71L885.462 2714.71L885.462 2414.62L827.838 2414.62L827.838 2364.7Z"/><path fill="white" transform="translate(0 -0.000488281)" d="M1400.93 2364.7L1455.86 2364.7L1455.86 2664.9L1546.54 2664.9L1546.54 2714.71L1400.93 2714.71L1400.93 2364.7Z"/><path fill="white" transform="translate(0 -0.000488281)" d="M1305.05 2364.74L1360.09 2364.74L1360.09 2714.74L1305.05 2714.74L1305.05 2364.74Z"/><path fill="white" transform="translate(0 -0.000488281)" d="M1573.15 2364.74L1628.15 2364.74L1628.15 2714.74L1573.15 2714.74L1573.15 2364.74Z"/><path fill="white" transform="translate(0 -0.000488281)" d="M2797.7 2364.74L2852.46 2364.74L2852.46 2714.74L2797.7 2714.74L2797.7 2364.74Z"/></svg>