<?xml version="1.0" encoding="utf-8" ?><svg xmlns="http://www.w3.org/2000/svg" xmlns:xlink="http://www.w3.org/1999/xlink" width="4096" height="4096" viewBox="0 0 4096 4096"><path fill="white" d="M2155.13 1747.89L2610.97 1748.31L2612.98 2368.5C2542.77 2367.5 2470.41 2368.46 2400.03 2368.52L2399.89 2121L2399.77 1957.92C2332.13 1956.8 2258.82 1957.44 2191.21 1958.3L2191.09 2368.99C2121.72 2369.2 2049.29 2370.46 1980.16 2369.05L1980.5 1957.6C1910.12 1957.37 1839.75 1957.54 1769.38 1958.12L1768.95 2368.3L1559.07 2368.94C1559.65 2233.9 1561.4 2093.05 1559.35 1958.27C1471.98 1954.82 1363.45 1958.15 1274.78 1958.39C1273.11 1899.63 1272.38 1806.2 1274.94 1748.15L1557.4 1747.93C1560.19 1800.96 1557.77 1877.23 1557.98 1932.48C1617.94 1873.23 1674.83 1808.27 1734.05 1747.89L1979.15 1748.1C1982.16 1798.29 1979.43 1880.56 1979.46 1932.85C2000.29 1914.76 2035.85 1875.52 2056.16 1853.78C2087.5 1820.23 2125.79 1782.39 2155.13 1747.89Z"/></svg>